# xmcd CD database file
#
# Track frame offsets:
#	150
#	14097
#	28975
#	41175
#	57930
#	73280
#	87217
#	99660
#	111400
#	130935
#	147120
#	157765
#	169897
#	182670
#	198537
#	212425
#
# Disc length: 2990 seconds
#
# Revision: 1
# Processed by: cddbd v1.5.2PL0 Copyright (c) Steve Scherf et al.
# Submitted via: CDex 1.79
#
DISCID=ed0bac10
DTITLE=Richard Dobson - One Bar Town
DYEAR=1995
DGENRE=Country
TTITLE0=Long, Long Way
TTITLE1=One Bar Town
TTITLE2=You Can`t Love Nobody (If You Don`t Love Yourself)
TTITLE3=When Souls Collide
TTITLE4=Money Talks
TTITLE5=Bus Stop Coffee
TTITLE6=Ballad Of Captain Blake
TTITLE7=Incident In The Houston Post
TTITLE8=Stranger
TTITLE9=Doing The Same Old Thing
TTITLE10=Burning That Candle
TTITLE11=Faded Loves And Memories
TTITLE12=I Want To Be Your Microphone
TTITLE13=Big Red Sun
TTITLE14=Que Se Yo?
TTITLE15=Amsterdam
EXTD=YEAR: 1995
EXTT0=
EXTT1=
EXTT2=
EXTT3=
EXTT4=
EXTT5=
EXTT6=
EXTT7=
EXTT8=
EXTT9=
EXTT10=
EXTT11=
EXTT12=
EXTT13=
EXTT14=
EXTT15=
PLAYORDER=
